# xmcd
#
# Track frame offsets:
#	150
#	16594
#	35732
#	51610
#	72588
#	91614
#	110448
#	125423
#	140901
#	154385
#	170837
#	190859
#	210493
#	226140
#	242094
#	259296
#	279752
#	298655
#
# Disc length: 4171 seconds
#
# Revision: 0
# Processed by: cddbd v1.5PL3 Copyright (c) Steve Scherf et al.
# Submitted via: dBpowerAMP V4.0
#
DISCID=0e104912
DTITLE=eclip´c - no hace falta
DYEAR=1900
DGENRE=cumbia
TTITLE0=No hace falta
TTITLE1=herida mortal
TTITLE2=no puedo olvidar
TTITLE3=me dijeron
TTITLE4=quisiera estar en el aire
TTITLE5=lloras
TTITLE6=por volverte a ver
TTITLE7=amantes
TTITLE8=te he querido olvidar
TTITLE9=mas que tu amigo
TTITLE10=digale
TTITLE11=reloj cucu
TTITLE12=sin ella
TTITLE13=que llorado
TTITLE14=tu y yo
TTITLE15=que te quieran mas que yo
TTITLE16=vuela muy alto
TTITLE17=adonde estabas tu
EXTD=
EXTT0=
EXTT1=
EXTT2=
EXTT3=
EXTT4=
EXTT5=
EXTT6=
EXTT7=
EXTT8=
EXTT9=
EXTT10=
EXTT11=
EXTT12=
EXTT13=
EXTT14=
EXTT15=
EXTT16=
EXTT17=
PLAYORDER=
